<?xml version="1.0" encoding="UTF-8" standalone="no"?>
<!-- Created with Inkscape (http://www.inkscape.org/) -->

<svg
   xmlns:dc="http://purl.org/dc/elements/1.1/"
   xmlns:cc="http://creativecommons.org/ns#"
   xmlns:rdf="http://www.w3.org/1999/02/22-rdf-syntax-ns#"
   xmlns:svg="http://www.w3.org/2000/svg"
   xmlns="http://www.w3.org/2000/svg"
   xmlns:sodipodi="http://sodipodi.sourceforge.net/DTD/sodipodi-0.dtd"
   xmlns:inkscape="http://www.inkscape.org/namespaces/inkscape"
   width="51mm"
   height="51mm"
   viewBox="0 0 51 51"
   version="1.1"
   id="svg8"
   inkscape:version="0.92.4 (5da689c313, 2019-01-14)"
   sodipodi:docname="Cetote_fashion-starts-here_logo - black.svg"
   inkscape:export-filename="C:\Users\Anna\Desktop\Loggor Cetote\bitmap.png"
   inkscape:export-xdpi="96"
   inkscape:export-ydpi="96">
  <defs
     id="defs2" />
  <sodipodi:namedview
     id="base"
     pagecolor="#ffffff"
     bordercolor="#666666"
     borderopacity="1.0"
     inkscape:pageopacity="0.0"
     inkscape:pageshadow="2"
     inkscape:zoom="1.52"
     inkscape:cx="-43.269223"
     inkscape:cy="85.019224"
     inkscape:document-units="mm"
     inkscape:current-layer="layer1-8"
     showgrid="false"
     inkscape:window-width="3840"
     inkscape:window-height="1137"
     inkscape:window-x="-8"
     inkscape:window-y="-8"
     inkscape:window-maximized="1" />
  <metadata
     id="metadata5">
    <rdf:RDF>
      <cc:Work
         rdf:about="">
        <dc:format>image/svg+xml</dc:format>
        <dc:type
           rdf:resource="http://purl.org/dc/dcmitype/StillImage" />
        <dc:title />
      </cc:Work>
    </rdf:RDF>
  </metadata>
  <g
     inkscape:label="Layer 1"
     inkscape:groupmode="layer"
     id="layer1"
     transform="translate(-692.65058,-190.04289)">
    <g
       transform="translate(984.25001,141.61427)"
       id="layer1-8"
       inkscape:label="Layer 1">
      <g
         aria-label="O"
         transform="matrix(0.26458333,0,0,0.26458333,-100.57609,-27.153753)"
         style="font-style:normal;font-weight:normal;font-size:40px;line-height:1.25;font-family:sans-serif;letter-spacing:0px;word-spacing:0px;fill:#000000;fill-opacity:1;stroke:none"
         id="flowRoot4526-78-8">
        <path
           d="m -625.6,430.17695 c 26.93333,0 48.13333,-21.46667 48.13333,-48.13333 0,-26.66667 -21.2,-48.13333 -48.13333,-48.13333 -26.93333,0 -48.13333,21.46666 -48.13333,48.13333 0,26.66666 21.2,48.13333 48.13333,48.13333 z m 0,-6.8 c -23.06667,0 -41.06667,-18.4 -41.06667,-41.33333 0,-22.93334 18,-41.33333 41.06667,-41.33333 23.06666,0 41.06666,18.39999 41.06666,41.33333 0,22.93333 -18,41.33333 -41.06666,41.33333 z"
           style="font-style:normal;font-variant:normal;font-weight:300;font-stretch:normal;font-size:133.33332825px;font-family:Gilroy;-inkscape-font-specification:'Gilroy Light'"
           id="path824" />
      </g>
      <path
         style="fill:none;fill-opacity:1;stroke:#000000;stroke-width:1.81245649;stroke-miterlimit:4;stroke-dasharray:none;stroke-opacity:1"
         d="m -241.50566,73.928619 a 24.593771,24.593771 0 0 1 -24.59377,24.593771 24.593771,24.593771 0 0 1 -24.59377,-24.593771 24.593771,24.593771 0 0 1 24.59377,-24.593771 24.593771,24.593771 0 0 1 24.59377,24.593771 z"
         id="path4654" />
      <path
         transform="scale(1,-1)"
         style="fill:none;fill-opacity:1;stroke:#000000;stroke-width:1.30628073;stroke-miterlimit:4;stroke-dasharray:none;stroke-opacity:1"
         d="m -253.88025,-74.160164 h 12.48674 v 0.463095 h -12.48674 z"
         id="rect4672" />
    </g>
  </g>
</svg>
